<svg fill="none" xmlns="http://www.w3.org/2000/svg" viewBox="0.4 0.4 16.2 17.2"> <path d="M1 16.52V1.48C1 1.2149 1.25184 1 1.5625 1H12.4858C12.6349 1 12.778 1.05057 12.8835 1.14059L15.8353 3.65941C15.9408 3.74943 16 3.87152 16 3.99882V16.52C16 16.7851 15.7482 17 15.4375 17H1.5625C1.25184 17 1 16.7851 1 16.52Z" stroke="#0364FC" stroke-width="1.2" stroke-linecap="round" stroke-linejoin="round"></path> <path d="M12 4.02222V1.31427C12 1.1407 12.1583 1 12.3536 1C12.4473 1 12.5372 1.03311 12.6036 1.09204L15.8964 4.01907C15.9628 4.078 16 4.15794 16 4.24129C16 4.41485 15.8417 4.55556 15.6464 4.55556H12.6C12.2686 4.55556 12 4.31677 12 4.02222Z" fill="#0364FC" stroke="#0364FC" stroke-linecap="round" stroke-linejoin="round"></path> <path d="M5 8H11" stroke="#0364FC" stroke-width="1.2" stroke-linecap="round" stroke-linejoin="round"></path> <path d="M4.74609 13.166H12.0037" stroke="#0364FC" stroke-width="1.2" stroke-linecap="round" stroke-linejoin="round"></path> <path d="M4.75 10.667H8.75" stroke="#0364FC" stroke-width="1.2" stroke-linecap="round" stroke-linejoin="round"></path> </svg>