<svg fill="#0364fc" id="Outlined" xmlns="http://www.w3.org/2000/svg" viewBox="2 2 28 28">  <g id="SVGRepo_bgCarrier" stroke-width="0"></g>  <g id="SVGRepo_tracerCarrier" stroke-linecap="round" stroke-linejoin="round"></g>  <g id="SVGRepo_iconCarrier"> <title></title> <g id="Fill"> <path d="M20,19a5,5,0,1,0-5-5A5,5,0,0,0,20,19Zm0-8a3,3,0,1,1-3,3A3,3,0,0,1,20,11Z"></path> <path d="M8.94,10a4,4,0,1,0-4-4A4,4,0,0,0,8.94,10Zm0-6a2,2,0,1,1-2,2A2,2,0,0,1,8.94,4Z"></path> <path d="M25,20H15a5,5,0,0,0-5,5v5h2V25a3,3,0,0,1,3-3H25a3,3,0,0,1,3,3v5h2V25A5,5,0,0,0,25,20Z"></path> <path d="M13,11H6a4,4,0,0,0-4,4v4H4V15a2,2,0,0,1,2-2h7Z"></path> </g> </g>  </svg>